<svg xmlns:xlink="http://www.w3.org/1999/xlink" width="115" height="56" viewBox="0 0 115 56" fill="none" xmlns="http://www.w3.org/2000/svg" class="logoImage" data-v-c118b6f4=""><g id="nil logo" fill="none"><path id="Path" d="M0 0H20C23.3526 0 26.5896 1.32948 28.9306 3.72832L79.8555 55.1445H59.8555C56.5029 55.1445 53.2659 53.815 50.9249 51.4162L0 0Z" fill="#25A9DF"></path> <g id="Group" fill="none"><path id="Path_2" d="M85.9539 15.8959L86.0117 13.1792L75.925 18.8728L77.0233 20.9537L78.266 20.289C78.266 20.289 80.636 24.7977 81.4741 26.2427C82.0811 27.3121 81.9076 27.6878 80.6649 27.7456C79.3065 27.8034 77.977 27.7456 76.6186 27.7456C74.3354 27.7456 74.162 27.5722 74.162 25.289C74.162 21.5896 74.1331 12.919 74.1331 12.919L71.4741 12.9479C71.4741 12.9479 71.503 13.2659 71.503 13.5838C71.503 17.3699 71.4452 21.474 71.5608 25.2601C71.6475 27.3699 73.266 28.815 75.3759 28.8728C77.5435 28.9306 79.7111 28.9017 81.8787 28.9017C82.7458 28.9017 83.4972 28.3526 83.4972 28.3526C84.3354 28.9595 89.9712 29.4219 91.2718 27.8034C92.1967 29.1329 101.387 29.6531 103.266 27.8612C104.74 29.5086 113.7 30 115 26.0404C115 25.9537 115 25.8381 115 25.7514C115 23.237 115 18.1792 115 18.1792H112.399C112.399 18.1792 112.37 23.4393 112.37 25.867C112.37 27.1387 111.792 27.4855 110.549 27.7167C109.393 27.919 108.295 28.0346 106.532 27.7167C105.174 27.4855 104.48 27.1387 104.509 25.8092C104.567 23.6994 104.48 18.1792 104.48 18.1792H101.85C101.85 18.1792 101.821 23.815 101.821 25.9826C101.821 27.1965 101.243 27.5144 100.058 27.7167C98.3816 28.0057 96.5897 28.1214 94.5666 27.7167C92.977 27.3988 92.5146 27.3121 92.5146 25.6647C92.5146 21.9942 92.6013 12.8901 92.6013 12.8901H89.8556C89.8556 12.8901 89.9134 22.0809 89.9134 25.7514C89.9134 26.3294 89.9712 26.9075 89.4799 27.3699C88.5261 28.2081 85.4915 27.8034 84.8267 26.7052C84.0753 25.4624 83.3816 24.2196 82.6591 22.9479C81.9944 21.7919 80.4048 19.0751 80.4048 19.0751L85.9539 15.8959Z" fill="#58595C"></path> <path id="Path_3" d="M84.769 12.9478H82.1967L74.9424 17.0807L75.5493 18.2368L84.769 12.9478Z" fill="#58595C"></path> <path id="Shape" fill-rule="evenodd" clip-rule="evenodd" d="M112.341 46.9076V39.2486L114.971 39.2197V46.7342V47.0232C114.682 49.2486 111.358 50.8382 108.439 48.8729C107.543 50.1446 104.567 50.0868 103.179 48.8151C102.57 49.9067 96.0962 49.7942 91.3379 49.7115C90.6789 49.7001 90.0528 49.6892 89.4798 49.6822C88.7573 49.6822 88.6417 49.8556 88.6995 50.4336C88.7862 51.503 88.5549 52.5723 87.8902 53.4394C87.3411 54.1619 86.5029 54.8267 85.6359 55.0868C84.6821 55.3758 84.3353 54.1619 85.1734 53.7862C86.0694 53.3816 86.0694 52.659 86.0694 51.8498C86.0694 48.0637 86.0983 39.2197 86.0983 39.2197H88.6995C88.6995 39.2197 88.6706 44.4509 88.6706 46.4163C88.6995 48.3816 88.9885 48.6706 90.9538 48.6417H92.0521L92.1388 48.3816C91.1853 46.9765 91.2338 45.4843 91.2821 43.9995C91.2895 43.774 91.2968 43.5486 91.3006 43.3238C91.3295 40.9827 93.1214 39.2486 95.318 39.3064C97.4856 39.3642 99.133 41.0694 99.133 43.3816C99.1376 43.6614 99.1513 43.9428 99.1651 44.225C99.2365 45.6918 99.3091 47.1828 98.1214 48.6128C98.1214 48.6272 98.1286 48.6345 98.1359 48.6417C98.1431 48.6489 98.1503 48.6561 98.1503 48.6706H99.5087C101.532 48.6417 101.792 48.4105 101.792 46.4452V39.2197H104.48C104.48 39.2197 104.48 44.74 104.451 46.9076C104.451 47.8324 104.711 48.6128 105.751 48.6128C106.763 48.6128 107.081 47.8324 107.081 46.9076V39.2197H109.74C109.74 39.2197 109.74 44.74 109.711 46.9076C109.682 47.8613 109.971 48.6128 111.012 48.6128C112.052 48.6128 112.341 47.8324 112.341 46.9076ZM96.5607 47.1966V44.6244V41.8787C96.5607 41.0405 96.0405 40.5203 95.2312 40.5203C94.4798 40.5203 93.9885 41.0405 93.9596 41.8209C93.9307 43.6417 93.9307 45.4625 93.9596 47.2833C93.9885 48.1215 94.4798 48.6706 95.318 48.6417C96.1561 48.6128 96.5607 48.0348 96.5607 47.1966Z" fill="#58595C"></path> <path id="Shape_2" fill-rule="evenodd" clip-rule="evenodd" d="M64.8846 15.7805C67.0522 15.6938 68.7863 17.399 68.9309 19.7978C68.9887 20.8094 68.9887 21.821 68.873 22.8325C68.584 25.0869 66.7921 26.3296 65.0002 26.2429C64.769 26.214 63.6129 26.2429 63.6129 26.2429L63.6707 31.3585H61.0407C61.0407 31.3585 61.0118 30.4626 61.0407 29.9713C61.0599 28.9115 61.0535 27.8518 61.0471 26.7921C61.0439 26.2622 61.0407 25.7323 61.0407 25.2025C61.0407 24.6244 61.0375 24.0464 61.0343 23.4684C61.0278 22.3123 61.0214 21.1562 61.0407 20.0002C61.0696 17.6013 62.6881 15.8672 64.8846 15.7805ZM65.0291 25.1158C65.8384 25.0869 66.2719 24.5088 66.2719 23.6707C66.2719 21.9655 66.2719 20.2314 66.3297 18.5262C66.3297 17.6013 65.9251 16.9944 65.0002 16.9944C64.1621 16.9944 63.7285 17.6302 63.6996 18.4395C63.6804 18.9972 63.6868 19.5677 63.6932 20.1425C63.6964 20.4315 63.6996 20.7216 63.6996 21.0117C63.6996 21.3093 63.6933 21.6101 63.6869 21.9119C63.674 22.5189 63.661 23.1301 63.6996 23.7285C63.7285 24.5666 64.191 25.1447 65.0291 25.1158Z" fill="#58595C"></path> <circle id="Oval" cx="108.382" cy="19.5954" r="1.27168" fill="#58595C"></circle> <circle id="Oval_2" cx="95.2316" cy="37.0808" r="1.27168" fill="#58595C"></circle> <g id="Group_2" fill="none"><circle id="Oval_3" cx="96.6765" cy="31.445" r="1.27168" fill="#58595C"></circle> <circle id="Oval_4" cx="99.1911" cy="31.445" r="1.27168" fill="#58595C"></circle></g></g></g></svg>